<?xml version="1.0" standalone="no"?>
<!DOCTYPE svg PUBLIC "-//W3C//DTD SVG 20010904//EN"
 "http://www.w3.org/TR/2001/REC-SVG-20010904/DTD/svg10.dtd">
<svg version="1.0" xmlns="http://www.w3.org/2000/svg"
 width="512.000000pt" height="512.000000pt" viewBox="0 0 512.000000 512.000000"
 preserveAspectRatio="xMidYMid meet">
<metadata>
Created by potrace 1.11, written by Peter Selinger 2001-2013
</metadata>
<g transform="translate(0.000000,512.000000) scale(0.100000,-0.100000)"
fill="#000000" stroke="none">
<path d="M760 5100 c-363 -91 -638 -367 -733 -738 l-22 -87 0 -1715 0 -1715
26 -96 c50 -179 135 -325 264 -454 152 -153 325 -242 540 -280 132 -23 3318
-23 3450 0 215 38 388 127 540 280 129 129 214 275 264 454 l26 96 0 1715 0
1715 -22 87 c-95 373 -372 650 -738 738 -78 19 -131 20 -1800 19 -1645 0
-1723 -1 -1795 -19z m3020 -1248 c0 -5 -129 -136 -287 -292 -159 -156 -740
-733 -1292 -1284 l-1003 -1001 6 570 5 569 723 723 723 723 562 0 c310 0 563
-4 563 -8z m-1730 -194 l0 -193 -417 -417 c-230 -230 -420 -418 -423 -418 -3
0 -3 1108 0 1218 0 1 189 2 420 2 l420 0 0 -192z m1285 -1702 c322 -346 585
-630 585 -632 0 -2 -246 -4 -547 -4 l-548 0 -333 347 -333 347 288 288 c158
158 291 287 295 286 4 -2 271 -286 593 -632z"/>
</g>
</svg>
